<?xml version="1.0" encoding="UTF-8" standalone="no"?>
<!DOCTYPE svg PUBLIC "-//W3C//DTD SVG 1.1//EN"
 "http://www.w3.org/Graphics/SVG/1.1/DTD/svg11.dtd">
<!-- Generated by graphviz version 13.1.2 (20250808.2320)
 -->
<!-- Title: GEPA_Full Pages: 1 -->
<svg width="688pt" height="325pt"
 viewBox="0.00 0.00 688.00 325.00" xmlns="http://www.w3.org/2000/svg" xmlns:xlink="http://www.w3.org/1999/xlink">
<g id="graph0" class="graph" transform="scale(1 1) rotate(0) translate(4 321)">
<title>GEPA_Full</title>
<polygon fill="white" stroke="none" points="-4,4 -4,-321 683.99,-321 683.99,4 -4,4"/>
<g id="clust1" class="cluster">
<title>cluster_pool</title>
<polygon fill="#f0f8ff" stroke="black" points="3.55,-201 3.55,-309 87.05,-309 87.05,-201 3.55,-201"/>
<text xml:space="preserve" text-anchor="middle" x="45.3" y="-294.55" font-family="Times,serif" font-size="11.00">Candidate Pool</text>
</g>
<!-- pool -->
<g id="node1" class="node">
<title>pool</title>
<polygon fill="white" stroke="black" points="73.6,-279.12 16,-279.12 16,-208.88 73.6,-208.88 73.6,-279.12"/>
<text xml:space="preserve" text-anchor="middle" x="44.8" y="-265.62" font-family="Arial" font-size="10.00">c₁</text>
<text xml:space="preserve" text-anchor="middle" x="44.8" y="-253.62" font-family="Arial" font-size="10.00">c₂</text>
<text xml:space="preserve" text-anchor="middle" x="44.8" y="-241.62" font-family="Arial" font-size="10.00">c₃</text>
<text xml:space="preserve" text-anchor="middle" x="44.8" y="-229.62" font-family="Arial" font-size="10.00">...</text>
<text xml:space="preserve" text-anchor="middle" x="44.8" y="-217.62" font-family="Arial" font-size="10.00">cₙ</text>
</g>
<!-- select -->
<g id="node2" class="node">
<title>select</title>
<polygon fill="#e8f4f8" stroke="black" points="222.55,-276 152.55,-244 222.55,-212 292.55,-244 222.55,-276"/>
<text xml:space="preserve" text-anchor="middle" x="222.55" y="-246.5" font-family="Arial" font-size="10.00">Select from</text>
<text xml:space="preserve" text-anchor="middle" x="222.55" y="-234.5" font-family="Arial" font-size="10.00">Pareto Front</text>
</g>
<!-- pool&#45;&gt;select -->
<g id="edge1" class="edge">
<title>pool&#45;&gt;select</title>
<path fill="none" stroke="black" d="M74.04,-244C92.13,-244 116.61,-244 140.43,-244"/>
<polygon fill="black" stroke="black" points="140.15,-247.5 150.15,-244 140.15,-240.5 140.15,-247.5"/>
<text xml:space="preserve" text-anchor="middle" x="115.8" y="-256.45" font-family="Arial" font-size="9.00">Pareto</text>
<text xml:space="preserve" text-anchor="middle" x="115.8" y="-245.95" font-family="Arial" font-size="9.00">sampling</text>
</g>
<!-- start -->
<g id="node3" class="node">
<title>start</title>
<ellipse fill="#e8f4f8" stroke="black" cx="398.27" cy="-244" rx="42.6" ry="31.11"/>
<text xml:space="preserve" text-anchor="middle" x="398.27" y="-252.5" font-family="Arial" font-size="10.00">Candidate</text>
<text xml:space="preserve" text-anchor="middle" x="398.27" y="-240.5" font-family="Arial" font-size="10.00">+</text>
<text xml:space="preserve" text-anchor="middle" x="398.27" y="-228.5" font-family="Arial" font-size="10.00">Minibatch</text>
</g>
<!-- select&#45;&gt;start -->
<g id="edge2" class="edge">
<title>select&#45;&gt;start</title>
<path fill="none" stroke="black" d="M293.71,-244C310.53,-244 328.22,-244 344.13,-244"/>
<polygon fill="black" stroke="black" points="343.84,-247.5 353.84,-244 343.84,-240.5 343.84,-247.5"/>
</g>
<!-- eval1 -->
<g id="node4" class="node">
<title>eval1</title>
<polygon fill="#fff2cc" stroke="black" points="641.99,-262 571.99,-262 571.99,-226 641.99,-226 641.99,-262"/>
<text xml:space="preserve" text-anchor="middle" x="606.99" y="-246.5" font-family="Arial" font-size="10.00">Evaluate</text>
<text xml:space="preserve" text-anchor="middle" x="606.99" y="-234.5" font-family="Arial" font-size="10.00">(with traces)</text>
</g>
<!-- start&#45;&gt;eval1 -->
<g id="edge3" class="edge">
<title>start&#45;&gt;eval1</title>
<path fill="none" stroke="black" d="M441.35,-244C475.82,-244 524.53,-244 560.01,-244"/>
<polygon fill="black" stroke="black" points="559.99,-247.5 569.99,-244 559.99,-240.5 559.99,-247.5"/>
<text xml:space="preserve" text-anchor="middle" x="488.24" y="-246.7" font-family="Arial" font-size="9.00">score₁</text>
</g>
<!-- improve -->
<g id="node5" class="node">
<title>improve</title>
<polygon fill="#d4edda" stroke="black" points="606.99,-190 533.99,-158 606.99,-126 679.99,-158 606.99,-190"/>
<text xml:space="preserve" text-anchor="middle" x="606.99" y="-160.5" font-family="Arial" font-size="10.00">Propose</text>
<text xml:space="preserve" text-anchor="middle" x="606.99" y="-148.5" font-family="Arial" font-size="10.00">Improvement</text>
</g>
<!-- eval1&#45;&gt;improve -->
<g id="edge4" class="edge">
<title>eval1&#45;&gt;improve</title>
<path fill="none" stroke="black" d="M606.99,-225.9C606.99,-218.85 606.99,-210.43 606.99,-201.97"/>
<polygon fill="black" stroke="black" points="610.49,-202.03 606.99,-192.03 603.49,-202.03 610.49,-202.03"/>
<text xml:space="preserve" text-anchor="middle" x="598.74" y="-204.7" font-family="Arial" font-size="9.00">feedback</text>
</g>
<!-- eval2 -->
<g id="node6" class="node">
<title>eval2</title>
<polygon fill="#fff2cc" stroke="black" points="641.24,-90 572.74,-90 572.74,-54 641.24,-54 641.24,-90"/>
<text xml:space="preserve" text-anchor="middle" x="606.99" y="-68.5" font-family="Arial" font-size="10.00">Re&#45;evaluate</text>
</g>
<!-- improve&#45;&gt;eval2 -->
<g id="edge5" class="edge">
<title>improve&#45;&gt;eval2</title>
<path fill="none" stroke="black" d="M606.99,-125.55C606.99,-117.71 606.99,-109.37 606.99,-101.66"/>
<polygon fill="black" stroke="black" points="610.49,-101.75 606.99,-91.75 603.49,-101.75 610.49,-101.75"/>
<text xml:space="preserve" text-anchor="middle" x="598.74" y="-104.7" font-family="Arial" font-size="9.00">new</text>
</g>
<!-- accept -->
<g id="node7" class="node">
<title>accept</title>
<polygon fill="#f8d7da" stroke="black" points="398.27,-75 354.05,-57 398.27,-39 442.49,-57 398.27,-75"/>
<text xml:space="preserve" text-anchor="middle" x="398.27" y="-53.5" font-family="Arial" font-size="10.00">Accept?</text>
</g>
<!-- eval2&#45;&gt;accept -->
<g id="edge6" class="edge">
<title>eval2&#45;&gt;accept</title>
<path fill="none" stroke="black" d="M572.26,-69.55C538.54,-67.11 486.33,-63.32 448.09,-60.54"/>
<polygon fill="black" stroke="black" points="448.44,-57.06 438.22,-59.83 447.94,-64.04 448.44,-57.06"/>
<text xml:space="preserve" text-anchor="middle" x="488.24" y="-68.1" font-family="Arial" font-size="9.00">score₂</text>
</g>
<!-- accept&#45;&gt;select -->
<g id="edge8" class="edge">
<title>accept&#45;&gt;select</title>
<path fill="none" stroke="red" stroke-dasharray="5,2" d="M385.43,-69.75C358.22,-99.04 290.65,-171.77 251.95,-213.43"/>
<polygon fill="red" stroke="red" points="249.43,-211 245.19,-220.71 254.56,-215.76 249.43,-211"/>
<text xml:space="preserve" text-anchor="middle" x="323.3" y="-146.84" font-family="Arial" font-size="9.00" fill="red">reject</text>
</g>
<!-- fulleval -->
<g id="node8" class="node">
<title>fulleval</title>
<polygon fill="#cce5ff" stroke="black" points="635.99,-36 577.99,-36 577.99,0 635.99,0 635.99,-36"/>
<text xml:space="preserve" text-anchor="middle" x="606.99" y="-20.5" font-family="Arial" font-size="10.00">Full</text>
<text xml:space="preserve" text-anchor="middle" x="606.99" y="-8.5" font-family="Arial" font-size="10.00">Validation</text>
</g>
<!-- accept&#45;&gt;fulleval -->
<g id="edge7" class="edge">
<title>accept&#45;&gt;fulleval</title>
<path fill="none" stroke="green" d="M429.33,-51.33C465.51,-44.5 526.38,-33.02 566.37,-25.47"/>
<polygon fill="green" stroke="green" points="566.9,-28.94 576.07,-23.64 565.6,-22.06 566.9,-28.94"/>
<text xml:space="preserve" text-anchor="middle" x="488.24" y="-47.29" font-family="Arial" font-size="8.00" fill="green">score₂ &gt; score₁</text>
</g>
<!-- fulleval&#45;&gt;pool -->
<g id="edge9" class="edge">
<title>fulleval&#45;&gt;pool</title>
<path fill="none" stroke="blue" stroke-width="2" d="M577.85,-14.41C530.28,-9.41 431.59,-3.68 354.05,-30 243.08,-67.67 135.87,-158.05 81.92,-208.48"/>
<polygon fill="blue" stroke="blue" stroke-width="2" points="80.8,-204.73 75.93,-214.14 85.6,-209.82 80.8,-204.73"/>
<text xml:space="preserve" text-anchor="middle" x="323.3" y="-59.81" font-family="Arial" font-size="9.00" fill="blue">add to</text>
<text xml:space="preserve" text-anchor="middle" x="323.3" y="-49.31" font-family="Arial" font-size="9.00" fill="blue">pool</text>
</g>
</g>
</svg>
