<?xml version="1.0" encoding="UTF-8" standalone="no"?>
<!DOCTYPE svg PUBLIC "-//W3C//DTD SVG 1.1//EN"
 "http://www.w3.org/Graphics/SVG/1.1/DTD/svg11.dtd">
<!-- Generated by graphviz version 13.1.2 (20250808.2320)
 -->
<!-- Title: ARC_Helpers Pages: 1 -->
<svg width="800pt" height="169pt"
 viewBox="0.00 0.00 800.00 169.00" xmlns="http://www.w3.org/2000/svg" xmlns:xlink="http://www.w3.org/1999/xlink">
<g id="graph0" class="graph" transform="scale(1 1) rotate(0) translate(4 164.76)">
<title>ARC_Helpers</title>
<polygon fill="white" stroke="none" points="-4,4 -4,-164.76 795.5,-164.76 795.5,4 -4,4"/>
<!-- helpers -->
<g id="node1" class="node">
<title>helpers</title>
<polygon fill="#e8f4f8" stroke="black" points="102,-160.76 0,-160.76 0,-80.76 108,-80.76 108,-154.76 102,-160.76"/>
<polyline fill="none" stroke="black" points="102,-160.76 102,-154.76"/>
<polyline fill="none" stroke="black" points="108,-154.76 102,-154.76"/>
<text xml:space="preserve" text-anchor="middle" x="54" y="-147.26" font-family="Arial" font-size="10.00">Helper Functions</text>
<text xml:space="preserve" text-anchor="middle" x="54" y="-135.26" font-family="Arial" font-size="10.00">────────</text>
<text xml:space="preserve" text-anchor="middle" x="54" y="-123.26" font-family="Arial" font-size="10.00">rotate_grid()</text>
<text xml:space="preserve" text-anchor="middle" x="54" y="-111.26" font-family="Arial" font-size="10.00">find_pattern()</text>
<text xml:space="preserve" text-anchor="middle" x="54" y="-99.26" font-family="Arial" font-size="10.00">flood_fill()</text>
<text xml:space="preserve" text-anchor="middle" x="54" y="-87.26" font-family="Arial" font-size="10.00">...</text>
</g>
<!-- eval -->
<g id="node2" class="node">
<title>eval</title>
<polygon fill="#fff2cc" stroke="black" points="256,-138.76 180.75,-138.76 180.75,-102.76 256,-102.76 256,-138.76"/>
<text xml:space="preserve" text-anchor="middle" x="218.38" y="-123.26" font-family="Arial" font-size="10.00">Model Solves</text>
<text xml:space="preserve" text-anchor="middle" x="218.38" y="-111.26" font-family="Arial" font-size="10.00">ARC Tasks</text>
</g>
<!-- helpers&#45;&gt;eval -->
<g id="edge1" class="edge">
<title>helpers&#45;&gt;eval</title>
<path fill="none" stroke="black" d="M108.17,-120.76C127.7,-120.76 149.7,-120.76 168.8,-120.76"/>
<polygon fill="black" stroke="black" points="168.77,-124.26 178.77,-120.76 168.77,-117.26 168.77,-124.26"/>
<text xml:space="preserve" text-anchor="middle" x="143.62" y="-122.71" font-family="Arial" font-size="9.00">provides</text>
</g>
<!-- code -->
<g id="node3" class="node">
<title>code</title>
<text xml:space="preserve" text-anchor="middle" x="218.38" y="-50.71" font-family="Arial" font-size="9.00" fill="#666666">uses helpers +</text>
<text xml:space="preserve" text-anchor="middle" x="218.38" y="-40.21" font-family="Arial" font-size="9.00" fill="#666666">general Python</text>
</g>
<!-- eval&#45;&gt;code -->
<!-- trajectories -->
<g id="node4" class="node">
<title>trajectories</title>
<polygon fill="#f0f0f0" stroke="black" points="405.5,-138.76 338.5,-138.76 338.5,-102.76 405.5,-102.76 405.5,-138.76"/>
<text xml:space="preserve" text-anchor="middle" x="372" y="-123.26" font-family="Arial" font-size="10.00">Execution</text>
<text xml:space="preserve" text-anchor="middle" x="372" y="-111.26" font-family="Arial" font-size="10.00">Trajectories</text>
</g>
<!-- eval&#45;&gt;trajectories -->
<g id="edge2" class="edge">
<title>eval&#45;&gt;trajectories</title>
<path fill="none" stroke="black" d="M256.47,-120.76C277.74,-120.76 304.58,-120.76 326.93,-120.76"/>
<polygon fill="black" stroke="black" points="326.64,-124.26 336.64,-120.76 326.64,-117.26 326.64,-124.26"/>
<text xml:space="preserve" text-anchor="middle" x="298" y="-122.71" font-family="Arial" font-size="9.00">logs usage</text>
</g>
<!-- mutate -->
<g id="node5" class="node">
<title>mutate</title>
<polygon fill="#d4edda" stroke="black" points="547.5,-152.76 474.5,-120.76 547.5,-88.76 620.5,-120.76 547.5,-152.76"/>
<text xml:space="preserve" text-anchor="middle" x="547.5" y="-123.26" font-family="Arial" font-size="10.00">Add/Remove</text>
<text xml:space="preserve" text-anchor="middle" x="547.5" y="-111.26" font-family="Arial" font-size="10.00">Helpers</text>
</g>
<!-- trajectories&#45;&gt;mutate -->
<g id="edge3" class="edge">
<title>trajectories&#45;&gt;mutate</title>
<path fill="none" stroke="black" d="M405.63,-120.76C421.71,-120.76 441.91,-120.76 461.96,-120.76"/>
<polygon fill="black" stroke="black" points="461.87,-124.26 471.87,-120.76 461.87,-117.26 461.87,-124.26"/>
<text xml:space="preserve" text-anchor="middle" x="440" y="-133.21" font-family="Arial" font-size="9.00">analyze</text>
<text xml:space="preserve" text-anchor="middle" x="440" y="-122.71" font-family="Arial" font-size="9.00">patterns</text>
</g>
<!-- new_helpers -->
<g id="node6" class="node">
<title>new_helpers</title>
<polygon fill="#cce5ff" stroke="black" points="785.5,-160.76 683.5,-160.76 683.5,-80.76 791.5,-80.76 791.5,-154.76 785.5,-160.76"/>
<polyline fill="none" stroke="black" points="785.5,-160.76 785.5,-154.76"/>
<polyline fill="none" stroke="black" points="791.5,-154.76 785.5,-154.76"/>
<text xml:space="preserve" text-anchor="middle" x="737.5" y="-147.26" font-family="Arial" font-size="10.00">Updated Functions</text>
<text xml:space="preserve" text-anchor="middle" x="737.5" y="-135.26" font-family="Arial" font-size="10.00">────────</text>
<text xml:space="preserve" text-anchor="middle" x="737.5" y="-123.26" font-family="Arial" font-size="10.00">rotate_grid()</text>
<text xml:space="preserve" text-anchor="middle" x="737.5" y="-111.26" font-family="Arial" font-size="10.00">find_symmetry()</text>
<text xml:space="preserve" text-anchor="middle" x="737.5" y="-99.26" font-family="Arial" font-size="10.00">count_colors()</text>
<text xml:space="preserve" text-anchor="middle" x="737.5" y="-87.26" font-family="Arial" font-size="10.00">...</text>
</g>
<!-- mutate&#45;&gt;new_helpers -->
<g id="edge4" class="edge">
<title>mutate&#45;&gt;new_helpers</title>
<path fill="none" stroke="black" d="M621.72,-120.76C638.23,-120.76 655.64,-120.76 671.78,-120.76"/>
<polygon fill="black" stroke="black" points="671.75,-124.26 681.75,-120.76 671.75,-117.26 671.75,-124.26"/>
<text xml:space="preserve" text-anchor="middle" x="652" y="-122.71" font-family="Arial" font-size="9.00">evolve</text>
</g>
<!-- new_helpers&#45;&gt;helpers -->
<g id="edge5" class="edge">
<title>new_helpers&#45;&gt;helpers</title>
<path fill="none" stroke="#666666" stroke-dasharray="5,2" d="M683.21,-93.8C582.33,-46.54 357.57,40.59 179.25,-21.76 149.6,-32.13 121.74,-52.87 99.95,-72.69"/>
<polygon fill="#666666" stroke="#666666" points="97.61,-70.09 92.7,-79.48 102.39,-75.2 97.61,-70.09"/>
<text xml:space="preserve" text-anchor="middle" x="372" y="-8.48" font-family="Arial" font-size="9.00">iterate</text>
</g>
</g>
</svg>
